# Blender 3.3.1
# www.blender.org
mtllib goalFrame.mtl
o 立方体
v -1.412673 0.175715 1.004493
v -1.412673 -0.175715 1.004493
v -1.412673 0.175715 -1.407507
v -1.412673 -0.175715 -1.407507
v -1.011067 0.175715 1.004493
v -1.011067 -0.175715 1.004493
v -1.011067 0.175715 -1.407507
v -1.011067 -0.175715 -1.407507
v 1.041454 0.175986 -1.006082
v 1.041454 -0.175444 -1.006082
v -1.071750 0.175986 -1.006082
v -1.071750 -0.175444 -1.006082
v 1.041454 0.175986 -1.407688
v 1.041454 -0.175444 -1.407688
v -1.071750 0.175986 -1.407688
v -1.071750 -0.175444 -1.407688
v 1.011097 0.175715 1.004887
v 1.011097 -0.175715 1.004887
v 1.011097 0.175715 -1.407840
v 1.011097 -0.175715 -1.407840
v 1.412703 0.175715 1.004887
v 1.412703 -0.175715 1.004887
v 1.412703 0.175715 -1.407840
v 1.412703 -0.175715 -1.407840
vn -1.0000 -0.0000 -0.0000
vn -0.0000 -0.0000 -1.0000
vn 1.0000 -0.0000 -0.0000
vn -0.0000 -0.0000 1.0000
vn -0.0000 1.0000 -0.0000
vn -0.0000 -1.0000 -0.0000
vt 0.819591 0.570697
vt 0.653289 0.665892
vt 0.380092 0.570697
vt 0.902742 0.570697
vt 0.570138 0.665892
vt 0.190046 0.570697
vt 0.166302 0.570869
vt 0.380092 0.000000
vt 0.819591 0.000000
vt 0.902742 0.000000
vt 0.083151 0.570869
vt 0.190046 0.000000
vt 0.653289 0.570869
vt 0.819591 0.570697
vt 0.285069 0.570697
vt 0.736440 0.570697
vt 0.570138 0.570869
vt 0.285069 0.570697
vt 0.819591 0.000000
vt 0.166302 0.665892
vt 0.285069 0.000000
vt 0.285069 0.000000
vt 0.083151 0.665892
vt 0.736440 0.000000
vt 0.985893 0.000000
vt 0.356348 0.665720
vt 0.380092 0.000000
vt 0.902742 0.000000
vt 0.273197 0.665720
vt 0.475115 0.500000
vt 0.000000 0.665892
vt 0.380092 0.500000
vt 0.985893 0.500000
vt 0.902742 0.500000
vt 0.083151 0.665892
vt 0.475115 0.000000
vt 0.356348 0.570697
vt 0.463243 1.000000
vt 0.475115 0.000000
vt 0.380092 1.000000
vt 0.273197 0.570697
vt 0.570138 0.500000
vt 0.463243 0.500000
vt 0.000000 0.570869
vt 0.475115 0.500000
vt 0.570138 0.000000
vt 0.083151 0.570869
vt 0.380092 0.500000
vt 0.570138 0.570869
vt 0.273197 0.665720
vt 0.095023 0.570869
vt 0.653289 0.570869
vt 0.190046 0.665720
vt 0.095023 0.570869
vt 0.546394 0.500000
vt 0.095023 0.000000
vt 0.570138 0.000000
vt 0.653289 0.000000
vt 0.463243 0.500000
vt 0.095023 0.000000
vt 0.273197 0.570697
vt 0.736440 0.570869
vt 0.000000 0.570869
vt 0.653289 0.570869
vt 0.190046 0.570697
vt 0.190046 0.570869
vt 0.736440 0.000000
vt 0.546394 0.595023
vt 0.000000 0.000000
vt 0.190046 0.000000
vt 0.463243 0.595023
vt 0.653289 0.000000
s 0
usemtl マテリアル.001
f 2/4/1 1/1/1 3/9/1
f 4/11/2 3/7/2 7/20/2
f 8/24/3 7/19/3 5/14/3
f 6/17/4 5/13/4 1/2/4
f 7/21/5 3/8/5 1/3/5
f 4/12/6 8/22/6 6/18/6
f 2/4/1 3/9/1 4/10/1
f 4/11/2 7/20/2 8/23/2
f 8/24/3 5/14/3 6/16/3
f 6/17/4 1/2/4 2/5/4
f 7/21/5 1/3/5 5/15/5
f 4/12/6 6/18/6 2/6/6
f 10/28/4 9/25/4 11/33/4
f 12/35/1 11/31/1 15/44/1
f 16/48/2 15/43/2 13/38/2
f 14/41/3 13/37/3 9/26/3
f 15/45/5 11/32/5 9/27/5
f 12/36/6 16/46/6 14/42/6
f 10/28/4 11/33/4 12/34/4
f 12/35/1 15/44/1 16/47/1
f 16/48/2 13/38/2 14/40/2
f 14/41/3 9/26/3 10/29/3
f 15/45/5 9/27/5 13/39/5
f 12/36/6 14/42/6 10/30/6
f 18/52/1 17/49/1 19/57/1
f 20/59/2 19/55/2 23/68/2
f 24/72/3 23/67/3 21/62/3
f 22/65/4 21/61/4 17/50/4
f 23/69/5 19/56/5 17/51/5
f 20/60/6 24/70/6 22/66/6
f 18/52/1 19/57/1 20/58/1
f 20/59/2 23/68/2 24/71/2
f 24/72/3 21/62/3 22/64/3
f 22/65/4 17/50/4 18/53/4
f 23/69/5 17/51/5 21/63/5
f 20/60/6 22/66/6 18/54/6
