# Blender 3.3.1
# www.blender.org
mtllib stage1_1.mtl
o Cube
v 11.911360 31.347389 -259.718475
v 11.911360 -30.119381 -259.718475
v 11.911360 31.347389 259.240845
v 11.911360 -30.119381 259.240845
v -11.911556 31.347389 -259.718475
v -11.911556 -30.119381 -259.718475
v -11.911556 31.347389 259.240845
v -11.911556 -30.119381 259.240845
v -11.917410 -6.705428 -53.310284
v -11.917410 57.410797 -53.310284
v -11.917410 -6.705428 -71.560364
v -11.917410 57.410797 -71.560364
v 11.917213 -6.705428 -53.310284
v 11.917213 57.410797 -53.310284
v 11.917213 -6.705428 -71.560364
v 11.917213 57.410797 -71.560364
v 11.917317 73.547180 69.075058
v 11.917317 9.430958 69.075058
v 11.917317 73.547180 87.325134
v 11.917317 9.430958 87.325134
v -11.917306 73.547180 69.075058
v -11.917306 9.430958 69.075058
v -11.917306 73.547180 87.325134
v -11.917306 9.430958 87.325134
v 11.955658 95.227676 240.786621
v 11.955658 31.111454 240.786621
v 11.955658 95.227676 259.036682
v 11.955658 31.111454 259.036682
v -11.878963 95.227676 240.786621
v -11.878963 31.111454 240.786621
v -11.878963 95.227676 259.036682
v -11.878963 31.111454 259.036682
v 11.054520 79.415451 222.671524
v 11.054520 15.299232 222.671524
v 11.054520 79.415451 240.921585
v 11.054520 15.299232 240.921585
v -12.780102 79.415451 222.671524
v -12.780102 15.299232 222.671524
v -12.780102 79.415451 240.921585
v -12.780102 15.299232 240.921585
v 10.519889 62.923782 204.230316
v 10.519889 -1.192434 204.230316
v 10.519889 62.923782 222.480377
v 10.519889 -1.192434 222.480377
v -13.314733 62.923782 204.230316
v -13.314733 -1.192434 204.230316
v -13.314733 62.923782 222.480377
v -13.314733 -1.192434 222.480377
v 11.906278 50.591621 185.933426
v 11.906278 -13.524596 185.933426
v 11.906278 50.591621 204.183487
v 11.906278 -13.524596 204.183487
v -11.928344 50.591621 185.933426
v -11.928344 -13.524596 185.933426
v -11.928344 50.591621 204.183487
v -11.928344 -13.524596 204.183487
v 11.400234 31.719215 -43.189667
v 11.400234 -29.747555 -43.189667
v 11.400234 31.719215 552.969360
v 11.400234 -29.747555 552.969360
v -12.422684 31.719215 -43.189667
v -12.422684 -29.747555 -43.189667
v -12.422684 31.719215 552.969360
v -12.422684 -29.747555 552.969360
v 11.444530 95.599503 534.515137
v 11.444530 31.483280 534.515137
v 11.444530 95.599503 552.765198
v 11.444530 31.483280 552.765198
v -12.390091 95.599503 534.515137
v -12.390091 31.483280 534.515137
v -12.390091 95.599503 552.765198
v -12.390091 31.483280 552.765198
v 10.543392 79.787277 516.400024
v 10.543392 15.671058 516.400024
v 10.543392 79.787277 534.650085
v 10.543392 15.671058 534.650085
v -13.291229 79.787277 516.400024
v -13.291229 15.671058 516.400024
v -13.291229 79.787277 534.650085
v -13.291229 15.671058 534.650085
v 10.008762 63.295605 497.958801
v 10.008762 -0.820609 497.958801
v 10.008762 63.295605 516.208862
v 10.008762 -0.820609 516.208862
v -13.825859 63.295605 497.958801
v -13.825859 -0.820609 497.958801
v -13.825859 63.295605 516.208862
v -13.825859 -0.820609 516.208862
v 11.395149 50.963444 479.661896
v 11.395149 -13.152771 479.661896
v 11.395149 50.963444 497.911957
v 11.395149 -13.152771 497.911957
v -12.439472 50.963444 479.661896
v -12.439472 -13.152771 479.661896
v -12.439472 50.963444 497.911957
v -12.439472 -13.152771 497.911957
vn -0.0000 1.0000 -0.0000
vn -0.0000 -0.0000 1.0000
vn -1.0000 -0.0000 -0.0000
vn -0.0000 -1.0000 -0.0000
vn 1.0000 -0.0000 -0.0000
vn -0.0000 -0.0000 -1.0000
vt 0.282790 0.000000
vt 0.000000 1.000000
vt 0.466478 0.236885
vt 0.118443 1.000000
vt 0.282790 0.000000
vt 0.466478 0.118443
vt 0.282790 1.000000
vt 0.512383 0.118443
vt 0.000000 0.000000
vt 0.512383 0.000000
vt 0.282790 1.000000
vt 0.118443 0.000000
vt 0.328695 0.000000
vt 0.118443 0.000000
vt 0.512383 0.236885
vt 0.512383 0.118443
vt 0.236885 0.000000
vt 0.328695 1.000000
vt 0.466478 0.118443
vt 0.118443 1.000000
vt 0.466478 0.000000
vt 0.236885 1.000000
vt 0.501640 0.236885
vt 0.328695 0.123548
vt 0.363861 0.494191
vt 0.501640 0.360432
vt 0.328695 0.247095
vt 0.328693 0.540119
vt 0.420551 0.000000
vt 0.399029 0.494191
vt 0.466476 0.236885
vt 0.466476 0.360432
vt 0.420551 0.123548
vt 0.363861 0.540119
vt 0.374623 0.123548
vt 0.501644 0.236885
vt 0.363861 0.540119
vt 0.501644 0.360432
vt 0.374623 0.247095
vt 0.328693 0.494191
vt 0.536812 0.236885
vt 0.374623 0.000000
vt 0.399029 0.540119
vt 0.363861 0.494191
vt 0.374623 0.123548
vt 0.536812 0.360432
vt 0.547546 0.123548
vt 0.501640 0.483980
vt 0.328695 0.370643
vt 0.501640 0.360433
vt 0.434189 0.540119
vt 0.328695 0.247095
vt 0.512383 0.123548
vt 0.374623 0.123548
vt 0.466476 0.483980
vt 0.374623 0.000000
vt 0.399025 0.540119
vt 0.466476 0.360433
vt 0.547546 0.169476
vt 0.374623 0.370643
vt 0.501648 0.483980
vt 0.434189 0.494191
vt 0.374623 0.247095
vt 0.501648 0.360433
vt 0.512383 0.169476
vt 0.328695 0.123548
vt 0.536812 0.483980
vt 0.536812 0.360433
vt 0.399025 0.494191
vt 0.328695 0.000000
vt 0.536804 0.529908
vt 0.571960 0.483980
vt 0.374623 0.370644
vt 0.571960 0.360432
vt 0.374623 0.247095
vt 0.571976 0.529908
vt 0.420551 0.247097
vt 0.536804 0.483980
vt 0.420551 0.123549
vt 0.536804 0.360432
vt 0.536804 0.483980
vt 0.420551 0.370644
vt 0.512390 0.123549
vt 0.420551 0.247095
vt 0.512390 0.000000
vt 0.571976 0.483980
vt 0.374623 0.247097
vt 0.547562 0.123549
vt 0.547562 0.000000
vt 0.374623 0.123549
vt 0.536804 0.575836
vt 0.607147 0.360433
vt 0.420550 0.370643
vt 0.607147 0.236885
vt 0.420550 0.247095
vt 0.571976 0.575836
vt 0.466478 0.123548
vt 0.571976 0.360433
vt 0.466478 0.000000
vt 0.571976 0.236885
vt 0.536804 0.529908
vt 0.466478 0.370643
vt 0.536819 0.360433
vt 0.466478 0.247095
vt 0.536819 0.236885
vt 0.571976 0.529908
vt 0.420550 0.123548
vt 0.571991 0.360433
vt 0.571991 0.236885
vt 0.420550 0.000000
vt 0.547546 0.169476
vt 0.607147 0.483980
vt 0.374623 0.494191
vt 0.607147 0.360432
vt 0.374623 0.370643
vt 0.582718 0.169476
vt 0.466478 0.494191
vt 0.571976 0.483980
vt 0.466478 0.370643
vt 0.571976 0.360432
vt 0.547546 0.123548
vt 0.420551 0.494191
vt 0.501648 0.607528
vt 0.420551 0.370643
vt 0.501648 0.483980
vt 0.582718 0.123548
vt 0.420550 0.494191
vt 0.536819 0.607528
vt 0.536819 0.483980
vt 0.420550 0.370643
vt 0.512390 0.215404
vt 0.582718 0.123548
vt 0.420550 0.247095
vt 0.582718 0.000000
vt 0.420550 0.123548
vt 0.547562 0.215404
vt 0.374623 0.494190
vt 0.547546 0.123548
vt 0.374623 0.370643
vt 0.547546 0.000000
vt 0.512390 0.169476
vt 0.466478 0.247095
vt 0.466476 0.607528
vt 0.466478 0.123548
vt 0.466476 0.483980
vt 0.547562 0.169476
vt 0.328695 0.494190
vt 0.501648 0.607528
vt 0.501648 0.483980
vt 0.328695 0.370643
vt 0.282790 0.000000
vt 0.000000 1.000000
vt 0.466478 0.236885
vt 0.118443 1.000000
vt 0.282790 0.000000
vt 0.466478 0.118443
vt 0.282790 1.000000
vt 0.512383 0.118443
vt 0.000000 0.000000
vt 0.512383 0.000000
vt 0.282790 1.000000
vt 0.118443 0.000000
vt 0.328695 0.000000
vt 0.118443 0.000000
vt 0.512383 0.236885
vt 0.512383 0.118443
vt 0.236885 0.000000
vt 0.328695 1.000000
vt 0.466478 0.118443
vt 0.118443 1.000000
vt 0.466478 0.000000
vt 0.236885 1.000000
vt 0.536804 0.529908
vt 0.571960 0.483980
vt 0.374623 0.370644
vt 0.571960 0.360432
vt 0.374623 0.247095
vt 0.571976 0.529908
vt 0.420551 0.247097
vt 0.536804 0.483980
vt 0.420551 0.123549
vt 0.536804 0.360432
vt 0.536804 0.483980
vt 0.420551 0.370644
vt 0.512390 0.123549
vt 0.420551 0.247095
vt 0.512390 0.000000
vt 0.571976 0.483980
vt 0.374623 0.247097
vt 0.547562 0.123549
vt 0.547562 0.000000
vt 0.374623 0.123549
vt 0.536804 0.575836
vt 0.607147 0.360433
vt 0.420550 0.370643
vt 0.607147 0.236885
vt 0.420550 0.247095
vt 0.571976 0.575836
vt 0.466478 0.123548
vt 0.571976 0.360433
vt 0.571976 0.236885
vt 0.536804 0.529908
vt 0.466478 0.370643
vt 0.536819 0.360433
vt 0.466478 0.247095
vt 0.536819 0.236885
vt 0.571976 0.529908
vt 0.420550 0.123548
vt 0.571991 0.360433
vt 0.571991 0.236885
vt 0.420550 0.000000
vt 0.547546 0.169476
vt 0.607147 0.483980
vt 0.374623 0.494191
vt 0.607147 0.360432
vt 0.374623 0.370643
vt 0.582718 0.169476
vt 0.466478 0.494191
vt 0.571976 0.483980
vt 0.571976 0.360432
vt 0.547546 0.123548
vt 0.420551 0.494191
vt 0.501648 0.607528
vt 0.420551 0.370643
vt 0.501648 0.483980
vt 0.582718 0.123548
vt 0.420550 0.494191
vt 0.536819 0.607528
vt 0.536819 0.483980
vt 0.420550 0.370643
vt 0.512390 0.215404
vt 0.582718 0.123548
vt 0.420550 0.247095
vt 0.582718 0.000000
vt 0.420550 0.123548
vt 0.547562 0.215404
vt 0.374623 0.494190
vt 0.547546 0.123548
vt 0.374623 0.370643
vt 0.547546 0.000000
vt 0.512390 0.169476
vt 0.466478 0.247095
vt 0.466476 0.607528
vt 0.466478 0.123548
vt 0.466476 0.483980
vt 0.547562 0.169476
vt 0.328695 0.494190
vt 0.501648 0.607528
vt 0.501648 0.483980
vt 0.328695 0.370643
s 0
usemtl Material
f 5/13/1 3/7/1 1/1/1
f 3/8/2 8/21/2 4/10/2
f 7/20/3 6/17/3 8/22/3
f 2/5/4 8/22/4 6/17/4
f 1/2/5 4/12/5 2/4/5
f 5/15/6 2/6/6 6/16/6
f 10/26/3 11/31/3 9/23/3
f 12/33/6 15/42/6 11/29/6
f 16/46/5 13/36/5 15/41/5
f 14/39/2 9/24/2 13/35/2
f 15/43/4 9/25/4 11/30/4
f 12/34/1 14/40/1 16/44/1
f 21/59/1 19/53/1 17/47/1
f 18/51/4 24/69/4 22/62/4
f 19/54/2 24/70/2 20/56/2
f 17/48/5 20/58/5 18/50/5
f 21/60/6 18/52/6 22/63/6
f 23/67/3 22/64/3 24/68/3
f 29/81/1 27/76/1 25/71/1
f 27/77/2 32/90/2 28/79/2
f 25/72/5 28/80/5 26/74/5
f 29/82/6 26/75/6 30/84/6
f 31/88/3 30/85/3 32/89/3
f 37/101/1 35/96/1 33/91/1
f 35/97/2 40/110/2 36/99/2
f 33/92/5 36/100/5 34/94/5
f 37/102/6 34/95/6 38/104/6
f 39/108/3 38/105/3 40/109/3
f 45/121/1 43/116/1 41/111/1
f 43/117/2 48/130/2 44/119/2
f 41/112/5 44/120/5 42/114/5
f 45/122/6 42/115/6 46/124/6
f 47/128/3 46/125/3 48/129/3
f 53/141/1 51/136/1 49/131/1
f 51/137/2 56/150/2 52/139/2
f 49/132/5 52/140/5 50/134/5
f 53/142/6 50/135/6 54/144/6
f 55/148/3 54/145/3 56/149/3
f 5/13/1 7/18/1 3/7/1
f 3/8/2 7/19/2 8/21/2
f 7/20/3 5/14/3 6/17/3
f 2/5/4 4/11/4 8/22/4
f 1/2/5 3/9/5 4/12/5
f 5/15/6 1/3/6 2/6/6
f 10/26/3 12/32/3 11/31/3
f 12/33/6 16/45/6 15/42/6
f 16/46/5 14/38/5 13/36/5
f 14/39/2 10/27/2 9/24/2
f 15/43/4 13/37/4 9/25/4
f 12/34/1 10/28/1 14/40/1
f 21/59/1 23/65/1 19/53/1
f 18/51/4 20/57/4 24/69/4
f 19/54/2 23/66/2 24/70/2
f 17/48/5 19/55/5 20/58/5
f 21/60/6 17/49/6 18/52/6
f 23/67/3 21/61/3 22/64/3
f 29/81/1 31/86/1 27/76/1
f 27/77/2 31/87/2 32/90/2
f 25/72/5 27/78/5 28/80/5
f 29/82/6 25/73/6 26/75/6
f 31/88/3 29/83/3 30/85/3
f 37/101/1 39/106/1 35/96/1
f 35/97/2 39/107/2 40/110/2
f 33/92/5 35/98/5 36/100/5
f 37/102/6 33/93/6 34/95/6
f 39/108/3 37/103/3 38/105/3
f 45/121/1 47/126/1 43/116/1
f 43/117/2 47/127/2 48/130/2
f 41/112/5 43/118/5 44/120/5
f 45/122/6 41/113/6 42/115/6
f 47/128/3 45/123/3 46/125/3
f 53/141/1 55/146/1 51/136/1
f 51/137/2 55/147/2 56/150/2
f 49/132/5 51/138/5 52/140/5
f 53/142/6 49/133/6 50/135/6
f 55/148/3 53/143/3 54/145/3
f 61/163/1 59/157/1 57/151/1
f 59/158/2 64/171/2 60/160/2
f 63/170/3 62/167/3 64/172/3
f 58/155/4 64/172/4 62/167/4
f 57/152/5 60/162/5 58/154/5
f 61/165/6 58/156/6 62/166/6
f 69/183/1 67/178/1 65/173/1
f 67/179/2 72/192/2 68/181/2
f 65/174/5 68/182/5 66/176/5
f 69/184/6 66/177/6 70/186/6
f 71/190/3 70/187/3 72/191/3
f 77/202/1 75/198/1 73/193/1
f 73/194/5 76/201/5 74/196/5
f 77/203/6 74/197/6 78/205/6
f 79/209/3 78/206/3 80/210/3
f 85/221/1 83/217/1 81/212/1
f 81/213/5 84/220/5 82/215/5
f 85/222/6 82/216/6 86/224/6
f 87/228/3 86/225/3 88/229/3
f 93/241/1 91/236/1 89/231/1
f 91/237/2 96/250/2 92/239/2
f 89/232/5 92/240/5 90/234/5
f 93/242/6 90/235/6 94/244/6
f 95/248/3 94/245/3 96/249/3
f 61/163/1 63/168/1 59/157/1
f 59/158/2 63/169/2 64/171/2
f 63/170/3 61/164/3 62/167/3
f 58/155/4 60/161/4 64/172/4
f 57/152/5 59/159/5 60/162/5
f 61/165/6 57/153/6 58/156/6
f 69/183/1 71/188/1 67/178/1
f 67/179/2 71/189/2 72/192/2
f 65/174/5 67/180/5 68/182/5
f 69/184/6 65/175/6 66/177/6
f 71/190/3 69/185/3 70/187/3
f 77/202/1 79/207/1 75/198/1
f 75/199/2 79/208/2 80/211/2
f 73/194/5 75/200/5 76/201/5
f 77/203/6 73/195/6 74/197/6
f 79/209/3 77/204/3 78/206/3
f 85/221/1 87/226/1 83/217/1
f 83/218/2 87/227/2 88/230/2
f 81/213/5 83/219/5 84/220/5
f 85/222/6 81/214/6 82/216/6
f 87/228/3 85/223/3 86/225/3
f 93/241/1 95/246/1 91/236/1
f 91/237/2 95/247/2 96/250/2
f 89/232/5 91/238/5 92/240/5
f 93/242/6 89/233/6 90/235/6
f 95/248/3 93/243/3 94/245/3
