# Blender 3.3.1
# www.blender.org
mtllib stage.mtl
o Cube
v 1.000000 0.993061 -58.418789
v 1.000000 -2.706419 -58.418789
v 1.000000 0.993061 35.586628
v 1.000000 -2.706419 35.586628
v -1.000000 0.993061 -58.418789
v -1.000000 -2.706419 -58.418789
v -1.000000 0.993061 35.586628
v -1.000000 -2.706419 35.586628
vn -0.0000 1.0000 -0.0000
vn -0.0000 -0.0000 1.0000
vn -1.0000 -0.0000 -0.0000
vn 1.0000 -0.0000 -0.0000
vn -0.0000 -0.0000 -1.0000
vt 0.165602 0.239140
vt 0.404741 0.358709
vt 0.000000 0.443707
vt 0.404741 0.239140
vt 0.000000 0.324137
vt 0.165602 0.358709
vt 0.404741 0.119570
vt 0.285172 0.358709
vt 0.404741 0.000000
vt 0.285172 0.239140
vt 0.285172 0.239140
vt 0.119570 0.443707
vt 0.119570 0.324137
vt 0.285172 0.119570
vt 0.285172 0.358709
vt 0.285172 0.119570
vt 0.404741 0.239140
vt 0.404741 0.119570
vt 0.285172 0.000000
s 0
usemtl Material
f 5/11/1 3/6/1 1/1/1
f 3/7/2 8/19/2 4/9/2
f 7/17/3 6/14/3 8/18/3
f 1/2/4 4/10/4 2/4/4
f 5/12/5 2/5/5 6/13/5
f 5/11/1 7/15/1 3/6/1
f 3/7/2 7/16/2 8/19/2
f 7/17/3 5/11/3 6/14/3
f 1/2/4 3/8/4 4/10/4
f 5/12/5 1/3/5 2/5/5
o 立方体
v -1.000000 0.995655 11.625876
v -1.000000 2.995655 11.625876
v -1.000000 0.995655 9.625876
v -1.000000 2.995655 9.625876
v 1.000000 0.995655 11.625876
v 1.000000 2.995655 11.625876
v 1.000000 0.995655 9.625876
v 1.000000 2.995655 9.625876
vn -1.0000 -0.0000 -0.0000
vn -0.0000 -0.0000 -1.0000
vn 1.0000 -0.0000 -0.0000
vn -0.0000 -0.0000 1.0000
vn -0.0000 1.0000 -0.0000
vt 0.285172 0.358709
vt 0.404741 0.119570
vt 0.285172 0.478279
vt 0.404741 0.239140
vt 0.524311 0.358709
vt 0.404741 0.358709
vt 0.165602 0.358709
vt 0.165602 0.478279
vt 0.404741 0.478279
vt 0.524311 0.239140
vt 0.524311 0.119570
vt 0.404741 0.000000
vt 0.404741 0.119570
vt 0.524311 0.239140
vt 0.404741 0.358709
vt 0.524311 0.000000
vt 0.285172 0.358709
vt 0.404741 0.239140
vt 0.285172 0.478279
vt 0.524311 0.119570
s 0
f 10/22/6 11/26/6 9/20/6
f 12/28/7 15/36/7 11/25/7
f 16/39/8 13/31/8 15/35/8
f 14/33/9 9/21/9 13/30/9
f 12/29/10 14/34/10 16/37/10
f 10/22/6 12/27/6 11/26/6
f 12/28/7 16/38/7 15/36/7
f 16/39/8 14/32/8 13/31/8
f 14/33/9 10/23/9 9/21/9
f 12/29/10 10/24/10 14/34/10
o 立方体.001
v -0.988596 0.989350 -0.284065
v -0.988596 5.216576 -0.284065
v -0.988596 0.989350 -2.284065
v -0.988596 5.216576 -2.284065
v 1.011404 0.989350 -0.284065
v 1.011404 5.216576 -0.284065
v 1.011404 0.989350 -2.284065
v 1.011404 5.216576 -2.284065
vn -1.0000 -0.0000 -0.0000
vn -0.0000 -0.0000 -1.0000
vn 1.0000 -0.0000 -0.0000
vn -0.0000 -0.0000 1.0000
vn -0.0000 1.0000 -0.0000
vt 0.524311 0.358709
vt 0.285172 0.478279
vt 0.524311 0.478279
vt 0.285172 0.597849
vt 0.524311 0.597849
vt 0.119570 0.443706
vt 0.404741 0.358709
vt 0.404741 0.478279
vt 0.119570 0.563276
vt 0.524311 0.478279
vt 0.404741 0.478279
vt 0.165602 0.478279
vt 0.165602 0.597849
vt 0.404741 0.597849
vt 0.285172 0.478279
vt 0.000000 0.443706
vt 0.404741 0.478279
vt 0.000000 0.563276
vt 0.285172 0.597849
s 0
f 18/42/11 19/46/11 17/40/11
f 20/48/12 23/55/12 19/45/12
f 24/58/13 21/51/13 23/54/13
f 22/53/14 17/41/14 21/50/14
f 20/49/15 22/53/15 24/56/15
f 18/42/11 20/47/11 19/46/11
f 20/48/12 24/57/12 23/55/12
f 24/58/13 22/52/13 21/51/13
f 22/53/14 18/43/14 17/41/14
f 20/49/15 18/44/15 22/53/15
o 立方体.002
v -1.000000 0.993031 -14.325371
v -1.000000 2.993031 -14.325371
v -1.000000 0.993031 -16.325371
v -1.000000 2.993031 -16.325371
v 1.000000 0.993031 -14.325371
v 1.000000 2.993031 -14.325371
v 1.000000 0.993031 -16.325371
v 1.000000 2.993031 -16.325371
vn -1.0000 -0.0000 -0.0000
vn 1.0000 -0.0000 -0.0000
vn -0.0000 -0.0000 1.0000
vn -0.0000 1.0000 -0.0000
vt 0.643881 0.000000
vt 0.763451 0.239140
vt 0.643881 0.119570
vt 0.763451 0.358709
vt 0.643881 0.478279
vt 0.524311 0.000000
vt 0.524311 0.119570
vt 0.643881 0.358709
vt 0.883020 0.239140
vt 0.524311 0.119570
vt 0.524311 0.239140
vt 0.883020 0.358709
vt 0.524311 0.478279
vt 0.643881 0.119570
vt 0.524311 0.358709
vt 0.643881 0.239140
s 0
f 26/61/16 27/64/16 25/59/16
f 32/74/17 29/68/17 31/72/17
f 30/70/18 25/60/18 29/67/18
f 28/66/19 30/71/19 32/73/19
f 26/61/16 28/65/16 27/64/16
f 32/74/17 30/69/17 29/68/17
f 30/70/18 26/62/18 25/60/18
f 28/66/19 26/63/19 30/71/19
o 立方体.003
v -1.000000 0.992671 -16.325941
v -1.000000 4.992671 -16.325941
v -1.000000 0.992671 -18.325941
v -1.000000 4.992671 -18.325941
v 1.000000 0.992671 -16.325941
v 1.000000 4.992671 -16.325941
v 1.000000 0.992671 -18.325941
v 1.000000 4.992671 -18.325941
v -1.000000 2.992671 -16.325941
v -1.000000 2.992671 -18.325941
v 1.000000 2.992671 -18.325941
v 1.000000 2.992671 -16.325941
vn -1.0000 -0.0000 -0.0000
vn 1.0000 -0.0000 -0.0000
vn -0.0000 -0.0000 1.0000
vn -0.0000 1.0000 -0.0000
vt 0.643881 0.478279
vt 0.643881 0.597849
vt 0.883020 0.478279
vt 0.404741 0.717419
vt 0.524311 0.478279
vt 0.524311 0.597849
vt 0.404741 0.597849
vt 0.000000 0.563276
vt 0.000000 0.682846
vt 0.883020 0.597849
vt 0.285172 0.717419
vt 0.119570 0.563276
vt 0.285172 0.597849
vt 0.119570 0.682846
vt 0.942805 0.478279
vt 0.643881 0.538064
vt 0.524311 0.538064
vt 0.119570 0.623061
vt 0.942805 0.597849
vt 0.000000 0.623061
s 0
f 34/76/20 42/91/20 41/90/20
f 40/88/21 44/94/21 43/92/21
f 38/84/22 41/89/22 44/93/22
f 36/81/23 38/85/23 40/87/23
f 43/92/21 37/82/21 39/86/21
f 41/90/20 35/79/20 33/75/20
f 34/76/20 36/80/20 42/91/20
f 40/88/21 38/83/21 44/94/21
f 38/84/22 34/77/22 41/89/22
f 36/81/23 34/78/23 38/85/23
f 43/92/21 44/94/21 37/82/21
f 41/90/20 42/91/20 35/79/20
o 立方体.004
v -1.000000 0.997456 -18.328434
v -1.000000 6.997456 -18.328434
v -1.000000 0.997456 -20.328434
v -1.000000 6.997456 -20.328434
v 1.000000 0.997456 -18.328434
v 1.000000 6.997456 -18.328434
v 1.000000 0.997456 -20.328434
v 1.000000 6.997456 -20.328434
v -1.000000 3.997456 -18.328434
v -1.000000 3.997456 -20.328434
v 1.000000 3.997456 -20.328434
v 1.000000 3.997456 -18.328434
vn -1.0000 -0.0000 -0.0000
vn 1.0000 -0.0000 -0.0000
vn -0.0000 -0.0000 1.0000
vn -0.0000 1.0000 -0.0000
vt 0.524311 0.597849
vt 0.524311 0.717419
vt 0.883020 0.239140
vt 0.763451 0.239140
vt 0.404741 0.597849
vt 0.404741 0.717419
vt 0.763451 0.119570
vt 0.524311 0.597849
vt 0.524311 0.717419
vt 0.883020 0.358709
vt 0.643881 0.239140
vt 0.643881 0.597849
vt 0.643881 0.119570
vt 0.643881 0.717419
vt 0.942805 0.239140
vt 0.524311 0.657634
vt 0.404741 0.657634
vt 0.643881 0.657634
vt 0.942805 0.358709
vt 0.524311 0.657634
s 0
f 46/96/24 54/111/24 53/110/24
f 52/108/25 56/114/25 55/112/25
f 50/104/26 53/109/26 56/113/26
f 48/101/27 50/105/27 52/107/27
f 55/112/25 49/102/25 51/106/25
f 53/110/24 47/99/24 45/95/24
f 46/96/24 48/100/24 54/111/24
f 52/108/25 50/103/25 56/114/25
f 50/104/26 46/97/26 53/109/26
f 48/101/27 46/98/27 50/105/27
f 55/112/25 56/114/25 49/102/25
f 53/110/24 54/111/24 47/99/24
o 立方体.005
v -1.000000 0.991272 -20.327274
v -1.000000 8.991272 -20.327274
v -1.000000 0.991272 -22.327274
v -1.000000 8.991272 -22.327274
v 1.000000 0.991272 -20.327274
v 1.000000 8.991272 -20.327274
v 1.000000 0.991272 -22.327274
v 1.000000 8.991272 -22.327274
v -1.000000 4.991272 -20.327274
v -1.000000 4.991272 -22.327274
v 1.000000 4.991272 -22.327274
v 1.000000 4.991272 -20.327274
v -1.000000 6.991272 -20.327274
v -1.000000 6.991272 -22.327274
v 1.000000 6.991272 -22.327274
v 1.000000 6.991272 -20.327274
vn -1.0000 -0.0000 -0.0000
vn -0.0000 -0.0000 -1.0000
vn 1.0000 -0.0000 -0.0000
vn -0.0000 -0.0000 1.0000
vn -0.0000 1.0000 -0.0000
vt 0.763451 0.239140
vt 0.763451 0.358709
vt 0.119570 0.324137
vt 0.119570 0.802416
vt 0.763451 0.358709
vt 0.643881 0.239140
vt 0.643881 0.358709
vt 0.763451 0.478279
vt 0.119570 0.682846
vt 0.643881 0.478279
vt 0.643881 0.597849
vt 0.119570 0.443707
vt 0.000000 0.802416
vt 0.763451 0.478279
vt 0.643881 0.358709
vt 0.000000 0.682846
vt 0.643881 0.478279
vt 0.763451 0.597849
vt 0.763451 0.298924
vt 0.763451 0.418494
vt 0.643881 0.298924
vt 0.763451 0.538064
vt 0.643881 0.418494
vt 0.643881 0.538064
vt 0.149462 0.324137
vt 0.763451 0.328817
vt 0.763451 0.448387
vt 0.643881 0.328817
vt 0.763451 0.567956
vt 0.643881 0.448387
vt 0.149462 0.443707
vt 0.643881 0.567956
s 0
f 58/116/28 70/142/28 69/140/28
f 60/122/29 71/144/29 70/141/29
f 64/132/30 72/146/30 71/143/30
f 62/126/31 69/139/31 72/145/31
f 60/123/32 62/127/32 64/130/32
f 67/136/30 61/124/30 63/128/30
f 66/134/29 63/129/29 59/119/29
f 65/133/28 59/120/28 57/115/28
f 71/143/30 68/138/30 67/136/30
f 70/141/29 67/137/29 66/134/29
f 69/140/28 66/135/28 65/133/28
f 58/116/28 60/121/28 70/142/28
f 60/122/29 64/131/29 71/144/29
f 64/132/30 62/125/30 72/146/30
f 62/126/31 58/117/31 69/139/31
f 60/123/32 58/118/32 62/127/32
f 67/136/30 68/138/30 61/124/30
f 66/134/29 67/137/29 63/129/29
f 65/133/28 66/135/28 59/120/28
f 71/143/30 72/146/30 68/138/30
f 70/141/29 71/144/29 67/137/29
f 69/140/28 70/142/28 66/135/28
o 立方体.006
v -1.000000 0.991272 -56.418049
v -1.000000 8.991272 -56.418049
v -1.000000 0.991272 -58.418049
v -1.000000 8.991272 -58.418049
v 1.000000 0.991272 -56.418049
v 1.000000 8.991272 -56.418049
v 1.000000 0.991272 -58.418049
v 1.000000 8.991272 -58.418049
v -1.000000 4.991272 -56.418049
v -1.000000 4.991272 -58.418049
v 1.000000 4.991272 -58.418049
v 1.000000 4.991272 -56.418049
v -1.000000 6.991272 -56.418049
v -1.000000 6.991272 -58.418049
v 1.000000 6.991272 -58.418049
v 1.000000 6.991272 -56.418049
vn -1.0000 -0.0000 -0.0000
vn -0.0000 -0.0000 -1.0000
vn 1.0000 -0.0000 -0.0000
vn -0.0000 -0.0000 1.0000
vn -0.0000 1.0000 -0.0000
vt 0.285172 0.717419
vt 0.285172 0.836988
vt 0.119570 0.443707
vt 0.763451 0.836988
vt 0.404741 0.717419
vt 0.165602 0.717419
vt 0.165602 0.836988
vt 0.404741 0.836988
vt 0.763451 0.717419
vt 0.404741 0.717419
vt 0.404741 0.836988
vt 0.119570 0.563276
vt 0.643881 0.836988
vt 0.524311 0.717419
vt 0.285172 0.717419
vt 0.643881 0.717419
vt 0.285172 0.836988
vt 0.524311 0.836988
vt 0.285172 0.777203
vt 0.404741 0.777203
vt 0.165602 0.777203
vt 0.524311 0.777203
vt 0.285172 0.777203
vt 0.404741 0.777203
vt 0.149462 0.443707
vt 0.285172 0.807096
vt 0.404741 0.807096
vt 0.165602 0.807096
vt 0.524311 0.807096
vt 0.285172 0.807096
vt 0.149462 0.563276
vt 0.404741 0.807096
s 0
f 74/148/33 86/174/33 85/172/33
f 76/154/34 87/176/34 86/173/34
f 80/164/35 88/178/35 87/175/35
f 78/158/36 85/171/36 88/177/36
f 76/155/37 78/159/37 80/162/37
f 83/168/35 77/156/35 79/160/35
f 82/166/34 79/161/34 75/151/34
f 81/165/33 75/152/33 73/147/33
f 87/175/35 84/170/35 83/168/35
f 86/173/34 83/169/34 82/166/34
f 85/172/33 82/167/33 81/165/33
f 74/148/33 76/153/33 86/174/33
f 76/154/34 80/163/34 87/176/34
f 80/164/35 78/157/35 88/178/35
f 78/158/36 74/149/36 85/171/36
f 76/155/37 74/150/37 78/159/37
f 83/168/35 84/170/35 77/156/35
f 82/166/34 83/169/34 79/161/34
f 81/165/33 82/167/33 75/152/33
f 87/175/35 88/178/35 84/170/35
f 86/173/34 87/176/34 83/169/34
f 85/172/33 86/174/33 82/167/33
o 立方体.007
v -1.000000 0.997456 -54.418751
v -1.000000 6.997456 -54.418751
v -1.000000 0.997456 -56.418751
v -1.000000 6.997456 -56.418751
v 1.000000 0.997456 -54.418751
v 1.000000 6.997456 -54.418751
v 1.000000 0.997456 -56.418751
v 1.000000 6.997456 -56.418751
v -1.000000 3.997456 -54.418751
v -1.000000 3.997456 -56.418751
v 1.000000 3.997456 -56.418751
v 1.000000 3.997456 -54.418751
vn -1.0000 -0.0000 -0.0000
vn 1.0000 -0.0000 -0.0000
vn -0.0000 -0.0000 1.0000
vn -0.0000 1.0000 -0.0000
vt 0.883020 0.000000
vt 0.883020 0.119570
vt 0.883020 0.597849
vt 0.883020 0.478279
vt 0.763451 0.000000
vt 0.763451 0.119570
vt 0.883020 0.358709
vt 0.763451 0.119570
vt 0.763451 0.239140
vt 0.883020 0.717419
vt 0.763451 0.478279
vt 0.883020 0.119570
vt 0.763451 0.358709
vt 0.883020 0.239140
vt 0.942805 0.597849
vt 0.883020 0.059785
vt 0.763451 0.059785
vt 0.883020 0.179355
vt 0.942805 0.717419
vt 0.763451 0.179355
s 0
f 90/180/38 98/195/38 97/194/38
f 96/192/39 100/198/39 99/196/39
f 94/188/40 97/193/40 100/197/40
f 92/185/41 94/189/41 96/191/41
f 99/196/39 93/186/39 95/190/39
f 97/194/38 91/183/38 89/179/38
f 90/180/38 92/184/38 98/195/38
f 96/192/39 94/187/39 100/198/39
f 94/188/40 90/181/40 97/193/40
f 92/185/41 90/182/41 94/189/41
f 99/196/39 100/198/39 93/186/39
f 97/194/38 98/195/38 91/183/38
o 立方体.008
v -1.000000 0.992671 -52.427071
v -1.000000 4.992671 -52.427071
v -1.000000 0.992671 -54.427071
v -1.000000 4.992671 -54.427071
v 1.000000 0.992671 -52.427071
v 1.000000 4.992671 -52.427071
v 1.000000 0.992671 -54.427071
v 1.000000 4.992671 -54.427071
v -1.000000 2.992671 -52.427071
v -1.000000 2.992671 -54.427071
v 1.000000 2.992671 -54.427071
v 1.000000 2.992671 -52.427071
vn -1.0000 -0.0000 -0.0000
vn 1.0000 -0.0000 -0.0000
vn -0.0000 -0.0000 1.0000
vn -0.0000 1.0000 -0.0000
vt 0.883020 0.478279
vt 0.883020 0.597849
vt 0.883020 0.358709
vt 0.119570 0.921986
vt 0.763451 0.478279
vt 0.763451 0.597849
vt 0.119570 0.802416
vt 0.763451 0.597849
vt 0.763451 0.717419
vt 0.883020 0.478279
vt 0.000000 0.921986
vt 0.883020 0.597849
vt 0.000000 0.802416
vt 0.883020 0.717419
vt 0.942805 0.358709
vt 0.883020 0.538064
vt 0.763451 0.538064
vt 0.883020 0.657634
vt 0.942805 0.478279
vt 0.763451 0.657634
s 0
f 102/200/42 110/215/42 109/214/42
f 108/212/43 112/218/43 111/216/43
f 106/208/44 109/213/44 112/217/44
f 104/205/45 106/209/45 108/211/45
f 111/216/43 105/206/43 107/210/43
f 109/214/42 103/203/42 101/199/42
f 102/200/42 104/204/42 110/215/42
f 108/212/43 106/207/43 112/218/43
f 106/208/44 102/201/44 109/213/44
f 104/205/45 102/202/45 106/209/45
f 111/216/43 112/218/43 105/206/43
f 109/214/42 110/215/42 103/203/42
o 立方体.009
v -1.000000 0.993031 -50.428909
v -1.000000 2.993031 -50.428909
v -1.000000 0.993031 -52.428909
v -1.000000 2.993031 -52.428909
v 1.000000 0.993031 -50.428909
v 1.000000 2.993031 -50.428909
v 1.000000 0.993031 -52.428909
v 1.000000 2.993031 -52.428909
vn -1.0000 -0.0000 -0.0000
vn 1.0000 -0.0000 -0.0000
vn -0.0000 -0.0000 1.0000
vn -0.0000 1.0000 -0.0000
vt 0.285172 0.836988
vt 0.404741 0.836988
vt 0.285172 0.956558
vt 0.404741 0.956558
vt 0.643881 0.956558
vt 0.165602 0.836988
vt 0.165602 0.956558
vt 0.643881 0.836988
vt 0.524311 0.836988
vt 0.285172 0.836988
vt 0.285172 0.956558
vt 0.524311 0.956558
vt 0.404741 0.836988
vt 0.524311 0.836988
vt 0.404741 0.956558
s 0
f 114/221/46 115/224/46 113/219/46
f 120/233/47 117/228/47 119/231/47
f 118/230/48 113/220/48 117/227/48
f 116/226/49 118/230/49 120/232/49
f 114/221/46 116/225/46 115/224/46
f 120/233/47 118/229/47 117/228/47
f 118/230/48 114/222/48 113/220/48
f 116/226/49 114/223/49 118/230/49
o Cube.001
o Cube.002
v 1.000000 0.993061 -114.051544
v 1.000000 -2.706419 -114.051544
v 1.000000 0.993061 -69.361610
v 1.000000 -2.706419 -69.361610
v -1.000000 0.993061 -114.051544
v -1.000000 -2.706419 -114.051544
v -1.000000 0.993061 -69.361610
v -1.000000 -2.706419 -69.361610
v -1.000000 -2.706419 -110.862732
v 1.000000 0.993061 -110.862732
v -1.000000 0.993061 -110.862732
v 1.000000 -2.706419 -110.862732
v -1.000000 -2.706419 -85.495392
v 1.000000 3.201693 -85.495392
v -1.000000 3.201693 -85.495392
v 1.000000 -2.706419 -85.495392
v -1.000000 -2.706419 -77.428497
v 1.000000 2.511066 -77.428497
v -1.000000 2.511066 -77.428497
v 1.000000 -2.706419 -77.428497
v -1.000000 3.622866 -81.461945
v 1.000000 -2.706419 -81.461945
v -1.000000 -2.706419 -81.461945
v 1.000000 3.622866 -81.461945
v -1.000000 3.622866 -83.478668
v 1.000000 -2.706419 -83.478668
v -1.000000 -2.706419 -83.478668
v 1.000000 3.622866 -83.478668
v -1.000000 -2.706419 -79.445221
v 1.000000 3.201693 -79.445221
v -1.000000 3.201693 -79.445221
v 1.000000 -2.706419 -79.445221
v -1.000000 0.993061 -104.173958
v 1.000000 -2.706419 -104.173958
v -1.000000 -2.706419 -104.173958
v 1.000000 0.993061 -104.173958
v -1.000000 -2.706419 -89.528839
v 1.000000 1.775056 -89.528839
v -1.000000 1.775056 -89.528839
v 1.000000 -2.706419 -89.528839
v -1.000000 -2.706419 -87.512115
v 1.000000 2.511066 -87.512115
v -1.000000 2.511066 -87.512115
v 1.000000 -2.706419 -87.512115
v -1.000000 0.993061 -91.545563
v 1.000000 -2.706419 -91.545563
v -1.000000 -2.706419 -91.545563
v 1.000000 0.993061 -91.545563
v -1.000000 -2.706419 -73.395058
v 1.000000 0.993061 -73.395058
v -1.000000 0.993061 -73.395058
v 1.000000 -2.706419 -73.395058
v -1.000000 1.775056 -75.411774
v 1.000000 -2.706419 -75.411774
v -1.000000 -2.706419 -75.411774
v 1.000000 1.775056 -75.411774
vn -0.0000 1.0000 -0.0000
vn -0.0000 -0.0000 1.0000
vn -1.0000 -0.0000 -0.0000
vn 1.0000 -0.0000 -0.0000
vn -0.0000 -0.0000 -1.0000
vn -0.0000 0.9461 -0.3240
vn -0.0000 0.9461 0.3240
vn -0.0000 0.9789 -0.2044
vn -0.0000 0.9789 0.2044
vn -0.0000 0.9324 -0.3615
vn -0.0000 0.9394 -0.3428
vn -0.0000 0.9324 0.3615
vn -0.0000 0.9394 0.3428
vt 0.161269 0.204567
vt 0.763451 0.836988
vt 0.165602 0.119570
vt 0.165602 0.000000
vt 0.881725 0.836988
vt 0.149462 0.324137
vt 0.881725 0.956558
vt 0.082801 0.119570
vt 1.000000 0.956558
vt 0.082801 0.000000
vt 0.000000 0.119570
vt 0.763451 0.956558
vt 0.161269 0.324137
vt 0.881725 0.956558
vt 0.000000 0.000000
vt 0.149462 0.443707
vt 0.881725 0.836988
vt 0.082801 0.119570
vt 0.082801 0.000000
vt 1.000000 0.836988
vt 0.005908 0.000000
vt 0.155360 0.204567
vt 0.159694 0.119570
vt 0.005908 0.119570
vt 0.155360 0.324137
vt 0.159694 0.000000
vt 0.052908 0.000000
vt 0.897034 0.119570
vt 0.112693 0.190954
vt 0.897034 0.239140
vt 0.052908 0.190954
vt 0.112693 0.000000
vt 0.067855 0.000000
vt 0.919662 0.119570
vt 0.097747 0.168633
vt 0.067855 0.168633
vt 0.919662 0.000000
vt 0.097747 0.000000
vt 0.161269 0.324137
vt 0.060382 0.204567
vt 0.883020 0.000000
vt 0.105220 0.000000
vt 0.060382 0.000000
vt 0.883020 0.119570
vt 0.161269 0.204567
vt 0.105220 0.204567
vt 0.165005 0.324137
vt 0.883020 0.239140
vt 0.056645 0.204567
vt 0.108957 0.000000
vt 0.056645 0.000000
vt 0.165005 0.204567
vt 0.108957 0.204567
vt 0.883020 0.119570
vt 0.064118 0.000000
vt 0.897034 0.119570
vt 0.101484 0.190954
vt 0.064118 0.190954
vt 0.897034 0.000000
vt 0.101484 0.000000
vt 0.018301 0.119570
vt 0.142967 0.324137
vt 0.147301 0.000000
vt 0.018301 0.000000
vt 0.142967 0.204567
vt 0.147301 0.119570
vt 0.045435 0.000000
vt 0.943741 0.119570
vt 0.120166 0.144844
vt 0.943741 0.239140
vt 0.045435 0.144844
vt 0.120166 0.000000
vt 0.049172 0.000000
vt 0.919662 0.119570
vt 0.116430 0.168633
vt 0.049172 0.168633
vt 0.919662 0.239140
vt 0.116430 0.000000
vt 0.969291 0.239140
vt 0.119570 0.324137
vt 0.041699 0.119570
vt 0.123903 0.000000
vt 0.041699 0.000000
vt 0.969291 0.119570
vt 0.123903 0.119570
vt 0.119570 0.204567
vt 0.075328 0.000000
vt 0.156935 0.324137
vt 0.090274 0.119570
vt 0.969291 0.119570
vt 0.156935 0.443707
vt 0.969291 0.000000
vt 0.075328 0.119570
vt 0.090274 0.000000
vt 0.943741 0.000000
vt 0.071591 0.144844
vt 0.094011 0.000000
vt 0.071591 0.000000
vt 0.943741 0.119570
vt 0.094011 0.144844
s 0
usemtl Material.002
f 171/324/50 123/239/50 170/321/50
f 123/240/51 128/253/51 124/242/51
f 131/257/52 126/248/52 129/254/52
f 170/322/53 124/243/53 172/327/53
f 125/245/54 122/238/54 126/247/54
f 121/236/53 132/259/53 122/237/53
f 153/294/52 129/254/52 155/297/52
f 125/246/50 130/255/50 121/234/50
f 147/284/52 135/264/52 133/260/52
f 162/308/53 136/265/53 164/311/53
f 163/310/55 134/261/55 162/307/55
f 173/329/52 137/266/52 175/331/52
f 152/293/53 138/268/53 140/271/53
f 151/292/56 138/267/56 150/289/56
f 145/280/50 144/278/50 148/285/50
f 148/286/53 142/275/53 146/283/53
f 151/291/52 143/276/52 149/288/52
f 134/262/53 146/283/53 136/265/53
f 135/263/57 148/287/57 134/261/57
f 141/273/52 147/284/52 143/276/52
f 139/269/52 149/288/52 137/266/52
f 141/274/58 150/289/58 144/277/58
f 142/275/53 150/290/53 152/293/53
f 131/258/50 156/298/50 130/255/50
f 130/256/53 154/296/53 132/259/53
f 167/316/52 153/294/52 155/297/52
f 161/306/52 159/304/52 157/300/52
f 165/312/59 158/301/59 168/317/59
f 168/318/53 160/305/53 166/315/53
f 133/260/52 163/309/52 161/306/52
f 159/303/60 162/307/60 158/301/60
f 158/302/53 164/311/53 160/305/53
f 156/299/53 166/315/53 154/296/53
f 153/295/50 168/319/50 156/298/50
f 157/300/52 165/314/52 167/316/52
f 127/251/52 169/320/52 128/252/52
f 174/330/53 170/322/53 172/327/53
f 173/328/61 170/323/61 176/332/61
f 139/270/62 176/332/62 138/267/62
f 140/271/53 176/333/53 174/330/53
f 171/326/52 175/331/52 169/320/52
f 171/324/50 127/249/50 123/239/50
f 123/240/51 127/250/51 128/253/51
f 131/257/52 125/244/52 126/248/52
f 170/322/53 123/241/53 124/243/53
f 125/245/54 121/235/54 122/238/54
f 121/236/53 130/256/53 132/259/53
f 153/294/52 131/257/52 129/254/52
f 125/246/50 131/258/50 130/255/50
f 147/284/52 145/282/52 135/264/52
f 162/308/53 134/262/53 136/265/53
f 163/310/55 135/263/55 134/261/55
f 173/329/52 139/269/52 137/266/52
f 152/293/53 150/290/53 138/268/53
f 151/292/56 139/270/56 138/267/56
f 145/280/50 141/272/50 144/278/50
f 148/286/53 144/279/53 142/275/53
f 151/291/52 141/273/52 143/276/52
f 134/262/53 148/286/53 146/283/53
f 135/263/57 145/281/57 148/287/57
f 141/273/52 145/282/52 147/284/52
f 139/269/52 151/291/52 149/288/52
f 141/274/58 151/292/58 150/289/58
f 142/275/53 144/279/53 150/290/53
f 131/258/50 153/295/50 156/298/50
f 130/256/53 156/299/53 154/296/53
f 167/316/52 165/314/52 153/294/52
f 161/306/52 163/309/52 159/304/52
f 165/312/59 159/303/59 158/301/59
f 168/318/53 158/302/53 160/305/53
f 133/260/52 135/264/52 163/309/52
f 159/303/60 163/310/60 162/307/60
f 158/302/53 162/308/53 164/311/53
f 156/299/53 168/318/53 166/315/53
f 153/295/50 165/313/50 168/319/50
f 157/300/52 159/304/52 165/314/52
f 127/251/52 171/326/52 169/320/52
f 174/330/53 176/333/53 170/322/53
f 173/328/61 171/325/61 170/323/61
f 139/270/62 173/328/62 176/332/62
f 140/271/53 138/268/53 176/333/53
f 171/326/52 173/329/52 175/331/52
o Cube.003
v 1.000000 0.993061 -181.581604
v 1.000000 -2.706419 -181.581604
v 1.000000 0.993061 -122.898041
v 1.000000 -2.706419 -122.898041
v -1.000000 0.993061 -181.581604
v -1.000000 -2.706419 -181.581604
v -1.000000 0.993061 -122.898041
v -1.000000 -2.706419 -122.898041
vn -0.0000 1.0000 -0.0000
vn -0.0000 -0.0000 1.0000
vn -1.0000 -0.0000 -0.0000
vn 1.0000 -0.0000 -0.0000
vn -0.0000 -0.0000 -1.0000
vt 0.524311 0.717419
vt 0.285172 0.717419
vt 0.643881 0.956558
vt 0.285172 0.597849
vt 0.643881 0.836988
vt 0.524311 0.836988
vt 0.763451 0.717419
vt 0.165602 0.717419
vt 0.763451 0.597849
vt 0.165602 0.597849
vt 0.643881 0.717419
vt 0.643881 0.119570
vt 0.763451 0.956558
vt 0.763451 0.836988
vt 0.643881 0.000000
vt 0.643881 0.836988
vt 0.643881 0.717419
vt 0.763451 0.119570
vt 0.763451 0.000000
vt 0.643881 0.597849
s 0
usemtl Material.003
f 181/344/63 179/339/63 177/334/63
f 179/340/64 184/353/64 180/342/64
f 183/351/65 182/348/65 184/352/65
f 177/335/66 180/343/66 178/337/66
f 181/346/67 178/338/67 182/347/67
f 181/344/63 183/349/63 179/339/63
f 179/340/64 183/350/64 184/353/64
f 183/351/65 181/345/65 182/348/65
f 177/335/66 179/341/66 180/343/66
f 181/346/67 177/336/67 178/338/67
o 立方体.010
v -1.000000 1.002962 -132.178497
v -1.000000 5.923166 -132.178497
v -1.000000 1.002962 -151.240997
v -1.000000 5.923166 -151.240997
v 1.000000 1.002962 -132.178497
v 1.000000 5.923166 -132.178497
v 1.000000 1.002962 -151.240997
v 1.000000 5.923166 -151.240997
vn -1.0000 -0.0000 -0.0000
vn -0.0000 -0.0000 -1.0000
vn 1.0000 -0.0000 -0.0000
vn -0.0000 -0.0000 1.0000
vn -0.0000 1.0000 -0.0000
vt 0.883020 0.717419
vt 0.165602 0.119570
vt 0.883020 0.836988
vt 0.165602 0.239140
vt 0.119570 0.324137
vt 0.643881 0.239140
vt 0.763451 0.717419
vt 0.763451 0.836988
vt 0.643881 0.358709
vt 0.119570 0.204567
vt 0.285172 0.119570
vt 0.165602 0.000000
vt 0.165602 0.119570
vt 0.285172 0.239140
vt 0.000000 0.324137
vt 0.285172 0.000000
vt 0.524311 0.239140
vt 0.000000 0.204567
vt 0.524311 0.358709
vt 0.285172 0.119570
s 0
f 186/356/68 187/360/68 185/354/68
f 188/362/69 191/370/69 187/359/69
f 192/373/70 189/365/70 191/369/70
f 190/367/71 185/355/71 189/364/71
f 188/363/72 190/368/72 192/371/72
f 186/356/68 188/361/68 187/360/68
f 188/362/69 192/372/69 191/370/69
f 192/373/70 190/366/70 189/365/70
f 190/367/71 186/357/71 185/355/71
f 188/363/72 186/358/72 190/368/72
