# Blender v2.92.0 OBJ File: ''
# www.blender.org
mtllib stage.mtl
o Cube.002
v -5.000000 4.965364 -366.975281
v 5.000000 4.965361 -346.808044
v 5.000000 4.965364 -366.975281
v -5.000000 -13.532039 -346.808044
v 5.000000 -13.532039 -346.808044
v -5.000000 4.965395 -554.313660
v -5.000000 -13.532002 -570.257690
v -5.000000 -13.532004 -554.313660
v 5.000000 -13.532035 -366.975281
v -5.000000 4.965398 -570.257690
v 5.000000 -13.532002 -570.257690
v 5.000000 4.965398 -570.257690
v 5.000000 -13.532004 -554.313660
v -5.000000 4.965390 -520.869812
v -5.000000 -13.532010 -520.869812
v 5.000000 4.965395 -554.313660
v -5.000000 -13.532027 -417.393341
v -5.000000 16.008535 -427.476959
v -5.000000 -13.532025 -427.476959
v 5.000000 12.555402 -437.560577
v 5.000000 -13.532025 -427.476959
v 5.000000 -13.532023 -437.560577
v -5.000000 12.555402 -437.560577
v 5.000000 16.008535 -427.476959
v -5.000000 8.875341 -377.058868
v -5.000000 -13.532032 -387.142487
v -5.000000 -13.532034 -377.058868
v 5.000000 -13.532030 -397.226105
v 5.000000 12.555393 -387.142487
v 5.000000 -13.532032 -387.142487
v -5.000000 16.008530 -397.226105
v 5.000000 16.008530 -397.226105
v -5.000000 18.114399 -417.393341
v 5.000000 18.114397 -407.309723
v 5.000000 18.114399 -417.393341
v 5.000000 -13.532028 -407.309723
v 5.000000 -13.532027 -417.393341
v -5.000000 -13.532028 -407.309723
v -5.000000 -13.532030 -397.226105
v -5.000000 18.114397 -407.309723
v -5.000000 12.555393 -387.142487
v 5.000000 4.965390 -520.869812
v 5.000000 -13.532010 -520.869812
v -5.000000 -13.532021 -457.727814
v -5.000000 -13.532023 -437.560577
v -5.000000 8.875353 -447.644196
v -5.000000 -13.532022 -447.644196
v -5.000000 4.965379 -457.727814
v 5.000000 8.875353 -447.644196
v 5.000000 4.965379 -457.727814
v 5.000000 -13.532022 -447.644196
v 5.000000 -13.532021 -457.727814
v -5.000000 4.965361 -346.808044
v -5.000000 -13.532035 -366.975281
v 5.000000 -13.532034 -377.058868
v 5.000000 8.875341 -377.058868
v 5.000000 5.000000 -5.000000
v 5.000000 -5.000000 -5.000000
v 5.000000 5.000000 5.000000
v 5.000000 -5.000000 5.000000
v -5.000000 5.000000 -5.000000
v -5.000000 -5.000000 -5.000000
v -5.000000 5.000000 5.000000
v -5.000000 -5.000000 5.000000
v -5.000000 4.965353 -292.093933
v 5.000000 4.965276 177.933136
v 5.000000 4.965353 -292.093933
v -5.000000 -13.532124 177.933136
v 5.000000 -13.532124 177.933136
v -5.000000 4.965276 177.933136
v -5.000000 -13.532047 -292.093933
v 5.000000 -13.532047 -292.093933
v -5.000000 14.978266 58.129387
v -5.000000 4.978267 48.129383
v -5.000000 4.978265 58.129383
v -5.000000 14.978268 48.129387
v 5.000000 4.978267 48.129383
v 5.000000 14.978268 48.129387
v 5.000000 4.978265 58.129383
v 5.000000 14.978266 58.129387
v -4.942980 26.082880 -1.420321
v -4.942980 4.946752 -11.420324
v -4.942980 4.946750 -1.420324
v -4.942980 26.082882 -11.420321
v 5.057020 4.946752 -11.420324
v 5.057020 26.082882 -11.420321
v 5.057020 4.946750 -1.420324
v 5.057020 26.082880 -1.420321
v -5.000000 14.965166 -71.626854
v -5.000000 4.965168 -81.626854
v -5.000000 4.965167 -71.626854
v 5.000000 14.965168 -81.626854
v 5.000000 4.965167 -71.626854
v 5.000000 4.965168 -81.626854
v 5.000000 14.965166 -71.626854
v -5.000000 14.965168 -81.626854
v -5.000000 24.963369 -81.629700
v -5.000000 14.963370 -91.629707
v -5.000000 14.963368 -81.629707
v 5.000000 24.963371 -91.629700
v 5.000000 14.963368 -81.629707
v 5.000000 14.963370 -91.629707
v 5.000000 24.963369 -81.629700
v -5.000000 24.963371 -91.629700
v 5.000000 4.963368 -81.629707
v 5.000000 4.963370 -91.629707
v -5.000000 4.963370 -91.629707
v -5.000000 4.963368 -81.629707
v -5.000000 34.987297 -91.642159
v -5.000000 19.987297 -101.642166
v -5.000000 19.987295 -91.642166
v 5.000000 34.987297 -101.642159
v 5.000000 19.987295 -91.642166
v 5.000000 19.987297 -101.642166
v 5.000000 34.987297 -91.642159
v -5.000000 34.987297 -101.642159
v 5.000000 4.987295 -91.642166
v 5.000000 4.987297 -101.642166
v -5.000000 4.987297 -101.642166
v -5.000000 4.987295 -91.642166
v -5.000000 44.956375 -101.636360
v -5.000000 34.956379 -111.636360
v -5.000000 34.956375 -101.636360
v -5.000000 44.956379 -111.636360
v 5.000000 34.956379 -111.636360
v 5.000000 44.956379 -111.636360
v 5.000000 34.956375 -101.636360
v 5.000000 44.956375 -101.636360
v 5.000000 24.956379 -111.636360
v 5.000000 4.956377 -101.636368
v 5.000000 4.956378 -111.636368
v -5.000000 24.956379 -111.636360
v -5.000000 4.956378 -111.636368
v -5.000000 24.956377 -101.636360
v -5.000000 4.956377 -101.636368
v 5.000000 24.956377 -101.636360
v -5.000000 44.956406 -282.090240
v -5.000000 34.956406 -292.090240
v -5.000000 34.956406 -282.090240
v -5.000000 44.956406 -292.090240
v 5.000000 34.956406 -292.090240
v 5.000000 44.956406 -292.090240
v 5.000000 34.956406 -282.090240
v 5.000000 44.956406 -282.090240
v 5.000000 24.956408 -292.090240
v 5.000000 4.956406 -282.090240
v 5.000000 4.956408 -292.090240
v -5.000000 24.956408 -292.090240
v -5.000000 4.956408 -292.090240
v -5.000000 24.956406 -282.090240
v -5.000000 4.956406 -282.090240
v 5.000000 24.956406 -282.090240
v -5.000000 34.987328 -272.093750
v -5.000000 19.987326 -282.093750
v -5.000000 19.987324 -272.093750
v 5.000000 34.987328 -282.093750
v 5.000000 19.987324 -272.093750
v 5.000000 19.987326 -282.093750
v 5.000000 34.987328 -272.093750
v -5.000000 34.987328 -282.093750
v 5.000000 4.987324 -272.093750
v 5.000000 4.987326 -282.093750
v -5.000000 4.987326 -282.093750
v -5.000000 4.987324 -272.093750
v -5.000000 24.963398 -262.135345
v -5.000000 14.963399 -272.135345
v -5.000000 14.963398 -262.135345
v 5.000000 24.963400 -272.135345
v 5.000000 14.963398 -262.135345
v 5.000000 14.963399 -272.135345
v 5.000000 24.963398 -262.135345
v -5.000000 24.963400 -272.135345
v 5.000000 4.963398 -262.135345
v 5.000000 4.963399 -272.135345
v -5.000000 4.963399 -272.135345
v -5.000000 4.963398 -262.135345
v -5.000000 14.965196 -252.144547
v -5.000000 4.965198 -262.144531
v -5.000000 4.965196 -252.144547
v 5.000000 14.965198 -262.144531
v 5.000000 4.965196 -252.144547
v 5.000000 4.965198 -262.144531
v 5.000000 14.965196 -252.144547
v -5.000000 14.965198 -262.144531
v -5.000000 4.965453 -907.908020
v 5.000000 4.965405 -614.490234
v 5.000000 4.965453 -907.908020
v -5.000000 -13.531995 -614.490234
v 5.000000 -13.531995 -614.490234
v -5.000000 4.965405 -614.490234
v -5.000000 -13.531947 -907.908020
v 5.000000 -13.531947 -907.908020
v -5.000000 29.615936 -660.892456
v -5.000000 5.014933 -756.204956
v -5.000000 5.014918 -660.892456
v -5.000000 29.615953 -756.204956
v 5.000000 5.014933 -756.204956
v 5.000000 29.615953 -756.204956
v 5.000000 5.014918 -660.892456
v 5.000000 29.615936 -660.892456
vt 0.875000 0.500000
vt 0.625000 0.750000
vt 0.625000 0.500000
vt 0.375000 1.000000
vt 0.375000 0.750000
vt 0.625000 0.000000
vt 0.375000 0.250000
vt 0.375000 0.000000
vt 0.375000 0.500000
vt 0.125000 0.750000
vt 0.125000 0.500000
vt 0.625000 0.250000
vt 0.875000 0.750000
vt 0.625000 1.000000
vt 0.156935 0.443707
vt 0.149462 0.324137
vt 0.156935 0.324137
vt 0.881725 0.956558
vt 1.000000 0.836988
vt 1.000000 0.956558
vt 0.005908 0.119570
vt 0.000000 0.000000
vt 0.005908 0.000000
vt 0.090274 0.119570
vt 0.082801 0.000000
vt 0.090274 0.000000
vt 0.763451 0.956558
vt 0.881725 0.836988
vt 0.881725 0.956558
vt 0.165602 0.119570
vt 0.159694 0.000000
vt 0.165602 0.000000
vt 0.018301 0.119570
vt 0.018301 0.000000
vt 0.161269 0.324137
vt 0.155360 0.204567
vt 0.161269 0.204567
vt 0.056645 0.000000
vt 0.052908 0.190954
vt 0.052908 0.000000
vt 0.116430 0.168633
vt 0.112693 0.000000
vt 0.116430 0.000000
vt 0.919662 0.239140
vt 0.897034 0.119570
vt 0.919662 0.119570
vt 0.071591 0.144844
vt 0.067855 0.000000
vt 0.071591 0.000000
vt 0.101484 0.000000
vt 0.097747 0.168633
vt 0.097747 0.000000
vt 0.897034 0.000000
vt 0.919662 0.119570
vt 0.897034 0.119570
vt 0.165005 0.324137
vt 0.161269 0.204567
vt 0.165005 0.204567
vt 0.108957 0.204567
vt 0.105220 0.000000
vt 0.108957 0.000000
vt 0.064118 0.190954
vt 0.060382 0.000000
vt 0.064118 0.000000
vt 0.112693 0.190954
vt 0.897034 0.239140
vt 0.883020 0.119570
vt 0.060382 0.204567
vt 0.067855 0.168633
vt 0.883020 0.000000
vt 0.883020 0.119570
vt 0.101484 0.190954
vt 0.155360 0.324137
vt 0.142967 0.204567
vt 0.159694 0.119570
vt 0.147301 0.000000
vt 0.041699 0.000000
vt 0.049172 0.000000
vt 0.045435 0.144844
vt 0.045435 0.000000
vt 0.969291 0.239140
vt 0.943741 0.119570
vt 0.969291 0.119570
vt 0.123903 0.119570
vt 0.120166 0.000000
vt 0.123903 0.000000
vt 0.049172 0.168633
vt 0.943741 0.239140
vt 0.120166 0.144844
vt 0.147301 0.119570
vt 0.142967 0.324137
vt 0.119570 0.204567
vt 0.041699 0.119570
vt 0.082801 0.119570
vt 0.075328 0.000000
vt 0.082801 0.000000
vt 0.094011 0.000000
vt 0.943741 0.000000
vt 0.969291 0.119570
vt 0.943741 0.119570
vt 0.919662 0.000000
vt 0.094011 0.144844
vt 0.075328 0.119570
vt 0.149462 0.443707
vt 0.881725 0.836988
vt 0.000000 0.119570
vt 0.082801 0.119570
vt 0.763451 0.836988
vt 0.056645 0.204567
vt 0.161269 0.324137
vt 0.105220 0.204567
vt 0.883020 0.239140
vt 0.119570 0.324137
vt 0.969291 0.000000
vt 0.285172 0.239140
vt 0.165602 0.358709
vt 0.165602 0.239140
vt 0.404741 0.119570
vt 0.285172 0.000000
vt 0.404741 0.000000
vt 0.404741 0.239140
vt 0.285172 0.119570
vt 0.404741 0.119570
vt 0.404741 0.358709
vt 0.285172 0.239140
vt 0.404741 0.239140
vt 0.119570 0.443707
vt 0.000000 0.324137
vt 0.119570 0.324137
vt 0.285172 0.358709
vt 0.285172 0.119570
vt 0.285172 0.358709
vt 0.000000 0.443707
vt 0.285172 0.478279
vt 0.165602 0.358709
vt 0.285172 0.358709
vt 0.404741 0.478279
vt 0.285172 0.358709
vt 0.404741 0.358709
vt 0.524311 0.119570
vt 0.404741 0.000000
vt 0.524311 0.000000
vt 0.524311 0.239140
vt 0.404741 0.119570
vt 0.524311 0.119570
vt 0.524311 0.239140
vt 0.404741 0.358709
vt 0.404741 0.239140
vt 0.165602 0.478279
vt 0.285172 0.478279
vt 0.404741 0.119570
vt 0.404741 0.239140
vt 0.524311 0.358709
vt 0.524311 0.478279
vt 0.404741 0.358709
vt 0.524311 0.358709
vt 0.119570 0.563276
vt 0.000000 0.443706
vt 0.119570 0.443706
vt 0.285172 0.597849
vt 0.165602 0.478279
vt 0.285172 0.478279
vt 0.404741 0.597849
vt 0.285172 0.478279
vt 0.404741 0.478279
vt 0.524311 0.478279
vt 0.404741 0.478279
vt 0.404741 0.478279
vt 0.000000 0.563276
vt 0.165602 0.597849
vt 0.285172 0.597849
vt 0.524311 0.597849
vt 0.643881 0.119570
vt 0.524311 0.000000
vt 0.643881 0.000000
vt 0.643881 0.239140
vt 0.524311 0.119570
vt 0.643881 0.119570
vt 0.883020 0.358709
vt 0.763451 0.239140
vt 0.883020 0.239140
vt 0.643881 0.358709
vt 0.524311 0.478279
vt 0.524311 0.358709
vt 0.524311 0.119570
vt 0.524311 0.239140
vt 0.763451 0.358709
vt 0.643881 0.478279
vt 0.643881 0.597849
vt 0.524311 0.538064
vt 0.643881 0.538064
vt 0.119570 0.682846
vt 0.000000 0.623061
vt 0.119570 0.623061
vt 0.883020 0.597849
vt 0.942805 0.478279
vt 0.942805 0.597849
vt 0.404741 0.597849
vt 0.285172 0.717419
vt 0.285172 0.597849
vt 0.000000 0.563276
vt 0.119570 0.563276
vt 0.524311 0.478279
vt 0.643881 0.478279
vt 0.524311 0.597849
vt 0.000000 0.682846
vt 0.883020 0.478279
vt 0.404741 0.717419
vt 0.524311 0.717419
vt 0.404741 0.657634
vt 0.524311 0.657634
vt 0.643881 0.717419
vt 0.524311 0.657634
vt 0.643881 0.657634
vt 0.883020 0.358709
vt 0.942805 0.239140
vt 0.942805 0.358709
vt 0.763451 0.119570
vt 0.643881 0.239140
vt 0.643881 0.119570
vt 0.524311 0.597849
vt 0.643881 0.597849
vt 0.404741 0.597849
vt 0.524311 0.597849
vt 0.404741 0.717419
vt 0.524311 0.717419
vt 0.883020 0.239140
vt 0.763451 0.239140
vt 0.763451 0.358709
vt 0.643881 0.328817
vt 0.763451 0.328817
vt 0.763451 0.478279
vt 0.643881 0.448387
vt 0.763451 0.448387
vt 0.763451 0.597849
vt 0.643881 0.567956
vt 0.763451 0.567956
vt 0.119570 0.443707
vt 0.149462 0.324137
vt 0.149462 0.443707
vt 0.119570 0.682846
vt 0.000000 0.802416
vt 0.000000 0.682846
vt 0.763451 0.538064
vt 0.643881 0.478279
vt 0.763451 0.478279
vt 0.763451 0.418494
vt 0.643881 0.358709
vt 0.763451 0.358709
vt 0.763451 0.298924
vt 0.643881 0.239140
vt 0.763451 0.239140
vt 0.643881 0.538064
vt 0.643881 0.418494
vt 0.643881 0.298924
vt 0.643881 0.358709
vt 0.643881 0.478279
vt 0.643881 0.597849
vt 0.119570 0.324137
vt 0.119570 0.802416
vt 0.285172 0.836988
vt 0.165602 0.807096
vt 0.285172 0.807096
vt 0.404741 0.836988
vt 0.285172 0.807096
vt 0.404741 0.807096
vt 0.524311 0.836988
vt 0.404741 0.807096
vt 0.524311 0.807096
vt 0.119570 0.563276
vt 0.149462 0.443707
vt 0.149462 0.563276
vt 0.763451 0.717419
vt 0.643881 0.836988
vt 0.643881 0.717419
vt 0.524311 0.777203
vt 0.404741 0.717419
vt 0.524311 0.717419
vt 0.404741 0.777203
vt 0.285172 0.717419
vt 0.404741 0.717419
vt 0.285172 0.777203
vt 0.165602 0.717419
vt 0.285172 0.717419
vt 0.404741 0.777203
vt 0.285172 0.777203
vt 0.165602 0.777203
vt 0.165602 0.836988
vt 0.285172 0.836988
vt 0.404741 0.836988
vt 0.119570 0.443707
vt 0.763451 0.836988
vt 0.883020 0.119570
vt 0.763451 0.059785
vt 0.883020 0.059785
vt 0.883020 0.239140
vt 0.763451 0.179355
vt 0.883020 0.179355
vt 0.883020 0.717419
vt 0.942805 0.597849
vt 0.942805 0.717419
vt 0.883020 0.358709
vt 0.763451 0.478279
vt 0.763451 0.358709
vt 0.763451 0.119570
vt 0.883020 0.119570
vt 0.763451 0.000000
vt 0.883020 0.000000
vt 0.763451 0.119570
vt 0.763451 0.239140
vt 0.883020 0.597849
vt 0.883020 0.478279
vt 0.883020 0.597849
vt 0.763451 0.538064
vt 0.883020 0.538064
vt 0.883020 0.717419
vt 0.763451 0.657634
vt 0.883020 0.657634
vt 0.883020 0.478279
vt 0.942805 0.358709
vt 0.942805 0.478279
vt 0.119570 0.802416
vt 0.000000 0.921986
vt 0.000000 0.802416
vt 0.763451 0.597849
vt 0.883020 0.597849
vt 0.763451 0.478279
vt 0.883020 0.478279
vt 0.763451 0.597849
vt 0.763451 0.717419
vt 0.883020 0.358709
vt 0.119570 0.921986
vt 0.285172 0.956558
vt 0.165602 0.836988
vt 0.285172 0.836988
vt 0.404741 0.956558
vt 0.285172 0.836988
vt 0.404741 0.836988
vt 0.524311 0.956558
vt 0.404741 0.836988
vt 0.524311 0.836988
vt 0.643881 0.836988
vt 0.524311 0.836988
vt 0.165602 0.956558
vt 0.285172 0.956558
vt 0.404741 0.956558
vt 0.643881 0.956558
vt 0.643881 0.717419
vt 0.524311 0.836988
vt 0.524311 0.717419
vt 0.763451 0.717419
vt 0.643881 0.597849
vt 0.763451 0.597849
vt 0.763451 0.119570
vt 0.643881 0.000000
vt 0.763451 0.000000
vt 0.285172 0.717419
vt 0.165602 0.597849
vt 0.285172 0.597849
vt 0.763451 0.956558
vt 0.643881 0.836988
vt 0.763451 0.836988
vt 0.643881 0.836988
vt 0.643881 0.717419
vt 0.643881 0.119570
vt 0.165602 0.717419
vt 0.643881 0.956558
vt 0.883020 0.836988
vt 0.763451 0.717419
vt 0.883020 0.717419
vt 0.643881 0.358709
vt 0.524311 0.239140
vt 0.643881 0.239140
vt 0.285172 0.119570
vt 0.165602 0.000000
vt 0.285172 0.000000
vt 0.285172 0.239140
vt 0.165602 0.119570
vt 0.285172 0.119570
vt 0.119570 0.204567
vt 0.000000 0.324137
vt 0.000000 0.204567
vt 0.763451 0.836988
vt 0.524311 0.358709
vt 0.165602 0.119570
vt 0.165602 0.239140
vt 0.119570 0.324137
vn 0.0000 1.0000 0.0000
vn 0.0000 -0.0000 1.0000
vn -1.0000 0.0000 0.0000
vn 0.0000 -1.0000 -0.0000
vn 1.0000 0.0000 0.0000
vn 0.0000 0.0000 -1.0000
vn 0.0000 0.9461 -0.3240
vn 0.0000 0.9461 0.3240
vn 0.0000 0.9789 -0.2044
vn 0.0000 0.9789 0.2044
vn 0.0000 0.9324 -0.3615
vn 0.0000 0.9394 -0.3428
vn 0.0000 0.9324 0.3615
vn 0.0000 0.9394 0.3428
usemtl マテリアル
s off
f 61/1/1 59/2/1 57/3/1
f 59/2/2 64/4/2 60/5/2
f 63/6/3 62/7/3 64/8/3
f 58/9/4 64/10/4 62/11/4
f 57/3/5 60/5/5 58/9/5
f 61/12/6 58/9/6 62/7/6
f 61/1/1 63/13/1 59/2/1
f 59/2/2 63/14/2 64/4/2
f 63/6/3 61/12/3 62/7/3
f 58/9/4 60/5/4 64/10/4
f 57/3/5 59/2/5 60/5/5
f 61/12/6 57/3/6 58/9/6
s 1
f 1/15/1 2/16/1 3/17/1
f 2/18/2 4/19/2 5/20/2
f 6/21/3 7/22/3 8/23/3
f 3/24/5 5/25/5 9/26/5
f 10/27/6 11/28/6 7/29/6
f 12/30/5 13/31/5 11/32/5
f 14/33/3 8/23/3 15/34/3
f 10/35/1 16/36/1 12/37/1
f 17/38/3 18/39/3 19/40/3
f 20/41/5 21/42/5 22/43/5
f 23/44/7 24/45/7 20/46/7
f 25/47/3 26/48/3 27/49/3
f 28/50/5 29/51/5 30/52/5
f 31/53/8 29/54/8 32/55/8
f 33/56/1 34/57/1 35/58/1
f 35/59/5 36/60/5 37/61/5
f 31/62/3 38/63/3 39/64/3
f 24/65/5 37/61/5 21/42/5
f 18/66/9 35/67/9 24/45/9
f 40/68/3 17/38/3 38/63/3
f 41/69/3 39/64/3 26/48/3
f 40/70/10 32/55/10 34/71/10
f 36/60/5 32/72/5 28/50/5
f 6/73/1 42/74/1 16/36/1
f 16/75/5 43/76/5 13/31/5
f 44/77/3 14/33/3 15/34/3
f 45/78/3 46/79/3 47/80/3
f 48/81/11 49/82/11 50/83/11
f 50/84/5 51/85/5 52/86/5
f 19/40/3 23/87/3 45/78/3
f 46/88/12 20/46/12 49/82/12
f 49/89/5 22/43/5 51/85/5
f 42/90/5 52/86/5 43/76/5
f 14/91/1 50/92/1 42/74/1
f 47/80/3 48/93/3 44/77/3
f 53/94/3 54/95/3 4/96/3
f 55/97/5 3/24/5 9/26/5
f 25/98/13 3/99/13 56/100/13
f 41/101/14 56/100/14 29/54/14
f 30/52/5 56/102/5 55/97/5
f 1/103/3 27/49/3 54/95/3
f 1/15/1 53/104/1 2/16/1
f 2/18/2 53/105/2 4/19/2
f 6/21/3 10/106/3 7/22/3
f 3/24/5 2/107/5 5/25/5
f 10/27/6 12/108/6 11/28/6
f 12/30/5 16/75/5 13/31/5
f 14/33/3 6/21/3 8/23/3
f 10/35/1 6/73/1 16/36/1
f 17/38/3 33/109/3 18/39/3
f 20/41/5 24/65/5 21/42/5
f 23/44/7 18/66/7 24/45/7
f 25/47/3 41/69/3 26/48/3
f 28/50/5 32/72/5 29/51/5
f 31/53/8 41/101/8 29/54/8
f 33/56/1 40/110/1 34/57/1
f 35/59/5 34/111/5 36/60/5
f 31/62/3 40/68/3 38/63/3
f 24/65/5 35/59/5 37/61/5
f 18/66/9 33/112/9 35/67/9
f 40/68/3 33/109/3 17/38/3
f 41/69/3 31/62/3 39/64/3
f 40/70/10 31/53/10 32/55/10
f 36/60/5 34/111/5 32/72/5
f 6/73/1 14/91/1 42/74/1
f 16/75/5 42/90/5 43/76/5
f 44/77/3 48/93/3 14/33/3
f 45/78/3 23/87/3 46/79/3
f 48/81/11 46/88/11 49/82/11
f 50/84/5 49/89/5 51/85/5
f 19/40/3 18/39/3 23/87/3
f 46/88/12 23/44/12 20/46/12
f 49/89/5 20/41/5 22/43/5
f 42/90/5 50/84/5 52/86/5
f 14/91/1 48/113/1 50/92/1
f 47/80/3 46/79/3 48/93/3
f 53/94/3 1/103/3 54/95/3
f 55/97/5 56/102/5 3/24/5
f 25/98/13 1/114/13 3/99/13
f 41/101/14 25/98/14 56/100/14
f 30/52/5 29/51/5 56/102/5
f 1/103/3 25/47/3 27/49/3
f 65/115/1 66/116/1 67/117/1
f 66/118/2 68/119/2 69/120/2
f 70/121/3 71/122/3 68/123/3
f 67/124/5 69/125/5 72/126/5
f 65/127/6 72/128/6 71/129/6
f 65/115/1 70/130/1 66/116/1
f 66/118/2 70/131/2 68/119/2
f 70/121/3 65/115/3 71/122/3
f 67/124/5 66/132/5 69/125/5
f 65/127/6 67/133/6 72/128/6
f 73/134/3 74/135/3 75/136/3
f 76/137/6 77/138/6 74/139/6
f 78/140/5 79/141/5 77/142/5
f 80/143/2 75/144/2 79/145/2
f 76/146/1 80/147/1 78/148/1
f 73/134/3 76/149/3 74/135/3
f 76/137/6 78/150/6 77/138/6
f 78/140/5 80/151/5 79/141/5
f 80/143/2 73/152/2 75/144/2
f 76/146/1 73/153/1 80/147/1
f 81/154/3 82/155/3 83/156/3
f 84/157/6 85/158/6 82/159/6
f 86/160/5 87/161/5 85/162/5
f 88/163/2 83/164/2 87/165/2
f 84/166/1 88/163/1 86/167/1
f 81/154/3 84/168/3 82/155/3
f 84/157/6 86/169/6 85/158/6
f 86/160/5 88/170/5 87/161/5
f 88/163/2 81/171/2 83/164/2
f 84/166/1 81/172/1 88/163/1
f 89/173/3 90/174/3 91/175/3
f 92/176/5 93/177/5 94/178/5
f 95/179/2 91/180/2 93/181/2
f 96/182/1 95/183/1 92/184/1
f 89/173/3 96/185/3 90/174/3
f 92/176/5 95/186/5 93/177/5
f 95/179/2 89/187/2 91/180/2
f 96/182/1 89/188/1 95/183/1
f 97/189/3 98/190/3 99/191/3
f 100/192/5 101/193/5 102/194/5
f 103/195/2 99/196/2 101/197/2
f 104/198/1 103/199/1 100/200/1
f 102/194/5 105/201/5 106/202/5
f 99/191/3 107/203/3 108/204/3
f 97/189/3 104/205/3 98/190/3
f 100/192/5 103/206/5 101/193/5
f 103/195/2 97/207/2 99/196/2
f 104/198/1 97/208/1 103/199/1
f 102/194/5 101/193/5 105/201/5
f 99/191/3 98/190/3 107/203/3
f 109/209/3 110/210/3 111/211/3
f 112/212/5 113/213/5 114/214/5
f 115/215/2 111/216/2 113/217/2
f 116/218/1 115/219/1 112/220/1
f 114/214/5 117/221/5 118/222/5
f 111/211/3 119/223/3 120/224/3
f 109/209/3 116/225/3 110/210/3
f 112/212/5 115/226/5 113/213/5
f 115/215/2 109/227/2 111/216/2
f 116/218/1 109/228/1 115/219/1
f 114/214/5 113/213/5 117/221/5
f 111/211/3 110/210/3 119/223/3
f 121/229/3 122/230/3 123/231/3
f 124/232/6 125/233/6 122/234/6
f 126/235/5 127/236/5 125/237/5
f 128/238/2 123/239/2 127/240/2
f 124/241/1 128/242/1 126/243/1
f 129/244/5 130/245/5 131/246/5
f 132/247/6 131/248/6 133/249/6
f 134/250/3 133/251/3 135/252/3
f 125/237/5 136/253/5 129/244/5
f 122/234/6 129/254/6 132/247/6
f 123/231/3 132/255/3 134/250/3
f 121/229/3 124/256/3 122/230/3
f 124/232/6 126/257/6 125/233/6
f 126/235/5 128/258/5 127/236/5
f 128/238/2 121/259/2 123/239/2
f 124/241/1 121/260/1 128/242/1
f 129/244/5 136/253/5 130/245/5
f 132/247/6 129/254/6 131/248/6
f 134/250/3 132/255/3 133/251/3
f 125/237/5 127/236/5 136/253/5
f 122/234/6 125/233/6 129/254/6
f 123/231/3 122/230/3 132/255/3
f 137/261/3 138/262/3 139/263/3
f 140/264/6 141/265/6 138/266/6
f 142/267/5 143/268/5 141/269/5
f 144/270/2 139/271/2 143/272/2
f 140/273/1 144/274/1 142/275/1
f 145/276/5 146/277/5 147/278/5
f 148/279/6 147/280/6 149/281/6
f 150/282/3 149/283/3 151/284/3
f 141/269/5 152/285/5 145/276/5
f 138/266/6 145/286/6 148/279/6
f 139/263/3 148/287/3 150/282/3
f 137/261/3 140/288/3 138/262/3
f 140/264/6 142/289/6 141/265/6
f 142/267/5 144/290/5 143/268/5
f 144/270/2 137/291/2 139/271/2
f 140/273/1 137/292/1 144/274/1
f 145/276/5 152/285/5 146/277/5
f 148/279/6 145/286/6 147/280/6
f 150/282/3 148/287/3 149/283/3
f 141/269/5 143/268/5 152/285/5
f 138/266/6 141/265/6 145/286/6
f 139/263/3 138/262/3 148/287/3
f 153/293/3 154/294/3 155/295/3
f 156/296/5 157/297/5 158/298/5
f 159/299/2 155/300/2 157/301/2
f 160/302/1 159/303/1 156/304/1
f 158/298/5 161/305/5 162/306/5
f 155/295/3 163/307/3 164/308/3
f 153/293/3 160/309/3 154/294/3
f 156/296/5 159/310/5 157/297/5
f 159/299/2 153/311/2 155/300/2
f 160/302/1 153/312/1 159/303/1
f 158/298/5 157/297/5 161/305/5
f 155/295/3 154/294/3 163/307/3
f 165/313/3 166/314/3 167/315/3
f 168/316/5 169/317/5 170/318/5
f 171/319/2 167/320/2 169/321/2
f 172/322/1 171/323/1 168/324/1
f 170/318/5 173/325/5 174/326/5
f 167/315/3 175/327/3 176/328/3
f 165/313/3 172/329/3 166/314/3
f 168/316/5 171/330/5 169/317/5
f 171/319/2 165/331/2 167/320/2
f 172/322/1 165/332/1 171/323/1
f 170/318/5 169/317/5 173/325/5
f 167/315/3 166/314/3 175/327/3
f 177/333/3 178/334/3 179/335/3
f 180/336/5 181/337/5 182/338/5
f 183/339/2 179/340/2 181/341/2
f 184/342/1 183/339/1 180/343/1
f 177/333/3 184/344/3 178/334/3
f 180/336/5 183/345/5 181/337/5
f 183/339/2 177/346/2 179/340/2
f 184/342/1 177/347/1 183/339/1
f 185/348/1 186/349/1 187/350/1
f 186/351/2 188/352/2 189/353/2
f 190/354/3 191/355/3 188/356/3
f 187/357/5 189/358/5 192/359/5
f 185/360/6 192/361/6 191/362/6
f 185/348/1 190/363/1 186/349/1
f 186/351/2 190/364/2 188/352/2
f 190/354/3 185/365/3 191/355/3
f 187/357/5 186/366/5 189/358/5
f 185/360/6 187/367/6 192/361/6
f 193/368/3 194/369/3 195/370/3
f 196/371/6 197/372/6 194/373/6
f 198/374/5 199/375/5 197/376/5
f 200/377/2 195/378/2 199/379/2
f 196/380/1 200/381/1 198/382/1
f 193/368/3 196/383/3 194/369/3
f 196/371/6 198/384/6 197/372/6
f 198/374/5 200/385/5 199/375/5
f 200/377/2 193/386/2 195/378/2
f 196/380/1 193/387/1 200/381/1
