# Blender v2.93.7 OBJ File: ''
# www.blender.org
mtllib goal_2.mtl
o 平面
v 1.000000 -1.003272 -0.019217
v -1.000000 0.996728 -0.020409
v -1.000000 -1.003272 -0.019217
v 1.000000 0.996728 -0.020409
vt 1.000000 0.000000
vt 0.000000 1.000000
vt 0.000000 0.000000
vt 1.000000 1.000000
vn 0.0000 0.0006 1.0000
usemtl マテリアル.002
s 1
f 1/1/1 2/2/1 3/3/1
f 1/1/1 4/4/1 2/2/1
o 立方体
v -1.412673 -1.007869 -0.194929
v -1.412673 -1.007660 0.156501
v -1.412673 1.404340 0.155063
v -1.412673 1.404130 -0.196367
v -1.011067 1.404340 0.155063
v -1.011067 1.404130 -0.196367
v -1.011067 -1.007660 0.156501
v -1.011067 -1.007869 -0.194929
v 1.041454 1.002705 -0.195856
v 1.041454 1.002915 0.155574
v -1.071750 1.002915 0.155574
v -1.071750 1.002705 -0.195856
v -1.071750 1.404521 0.155334
v -1.071750 1.404311 -0.196096
v 1.041454 1.404521 0.155334
v 1.041454 1.404311 -0.196096
v 1.011097 -1.008263 -0.194929
v 1.011097 -1.008054 0.156501
v 1.011097 1.404673 0.155063
v 1.011097 1.404463 -0.196367
v 1.412703 1.404673 0.155063
v 1.412703 1.404463 -0.196367
v 1.412703 -1.008054 0.156501
v 1.412703 -1.008263 -0.194929
vt 0.902742 0.570697
vt 0.819591 0.570697
vt 0.819591 0.000000
vt 0.083151 0.570869
vt 0.166302 0.570869
vt 0.166302 0.665892
vt 0.736440 0.000000
vt 0.819591 0.000000
vt 0.819591 0.570697
vt 0.570138 0.570869
vt 0.653289 0.570869
vt 0.653289 0.665892
vt 0.285069 0.000000
vt 0.380092 0.000000
vt 0.380092 0.570697
vt 0.190046 0.000000
vt 0.285069 0.000000
vt 0.285069 0.570697
vt 0.902742 0.000000
vt 0.083151 0.665892
vt 0.736440 0.570697
vt 0.570138 0.665892
vt 0.285069 0.570697
vt 0.190046 0.570697
vt 0.902742 0.000000
vt 0.985893 0.000000
vt 0.985893 0.500000
vt 0.083151 0.665892
vt 0.000000 0.665892
vt 0.000000 0.570869
vt 0.380092 0.500000
vt 0.463243 0.500000
vt 0.463243 1.000000
vt 0.273197 0.570697
vt 0.356348 0.570697
vt 0.356348 0.665720
vt 0.475115 0.500000
vt 0.380092 0.500000
vt 0.380092 0.000000
vt 0.475115 0.000000
vt 0.570138 0.000000
vt 0.570138 0.500000
vt 0.902742 0.500000
vt 0.083151 0.570869
vt 0.380092 1.000000
vt 0.273197 0.665720
vt 0.475115 0.000000
vt 0.475115 0.500000
vt 0.653289 0.570869
vt 0.570138 0.570869
vt 0.570138 0.000000
vt 0.463243 0.500000
vt 0.546394 0.500000
vt 0.546394 0.595023
vt 0.653289 0.000000
vt 0.736440 0.000000
vt 0.736440 0.570869
vt 0.190046 0.570697
vt 0.273197 0.570697
vt 0.273197 0.665720
vt 0.000000 0.000000
vt 0.095023 0.000000
vt 0.095023 0.570869
vt 0.095023 0.000000
vt 0.190046 0.000000
vt 0.190046 0.570869
vt 0.653289 0.000000
vt 0.463243 0.595023
vt 0.653289 0.570869
vt 0.190046 0.665720
vt 0.000000 0.570869
vt 0.095023 0.570869
vn -1.0000 -0.0000 0.0000
vn 0.0000 1.0000 -0.0006
vn 1.0000 -0.0000 0.0000
vn 0.0000 -1.0000 0.0006
vn 0.0000 0.0006 1.0000
vn 0.0000 -0.0006 -1.0000
usemtl マテリアル.001
s 1
f 5/5/2 6/6/2 7/7/2
f 8/8/3 7/9/3 9/10/3
f 10/11/4 9/12/4 11/13/4
f 12/14/5 11/15/5 6/16/5
f 9/17/6 7/18/6 6/19/6
f 8/20/7 10/21/7 12/22/7
f 5/5/2 7/7/2 8/23/2
f 8/8/3 9/10/3 10/24/3
f 10/11/4 11/13/4 12/25/4
f 12/14/5 6/16/5 5/26/5
f 9/17/6 6/19/6 11/27/6
f 8/20/7 12/22/7 5/28/7
f 13/29/5 14/30/5 15/31/5
f 16/32/2 15/33/2 17/34/2
f 18/35/3 17/36/3 19/37/3
f 20/38/4 19/39/4 14/40/4
f 17/41/6 15/42/6 14/43/6
f 16/44/7 18/45/7 20/46/7
f 13/29/5 15/31/5 16/47/5
f 16/32/2 17/34/2 18/48/2
f 18/35/3 19/37/3 20/49/3
f 20/38/4 14/40/4 13/50/4
f 17/41/6 14/43/6 19/51/6
f 16/44/7 20/46/7 13/52/7
f 21/53/2 22/54/2 23/55/2
f 24/56/3 23/57/3 25/58/3
f 26/59/4 25/60/4 27/61/4
f 28/62/5 27/63/5 22/64/5
f 25/65/6 23/66/6 22/67/6
f 24/68/7 26/69/7 28/70/7
f 21/53/2 23/55/2 24/71/2
f 24/56/3 25/58/3 26/72/3
f 26/59/4 27/61/4 28/73/4
f 28/62/5 22/64/5 21/74/5
f 25/65/6 22/67/6 27/75/6
f 24/68/7 28/70/7 21/76/7
